<svg width="401" height="96" viewBox="0 0 401 96" fill="none" xmlns="http://www.w3.org/2000/svg">
<path d="M27.6092 33.9064C39.7361 31.38 49.3049 28.4746 56.3157 25.1903C62.695 22.2217 65.8846 19.6321 65.8846 17.4215C65.8846 14.8319 60.6107 13.5371 50.0628 13.5371C48.0417 13.7266 46.1469 13.8845 44.3784 14.0108C42.6099 14.1371 40.6519 14.2003 38.5044 14.2003C38.5044 17.0425 36.9254 20.7374 33.7674 25.285C31.1778 28.8851 29.1251 31.759 27.6092 33.9064ZM16.8088 50.2966C15.9877 51.7493 14.2823 54.3389 11.6928 58.0654C10.1137 60.4023 9.13475 62.1076 8.75578 63.1814C8.18734 64.8867 7.08203 66.4026 5.43985 67.7289C4.05032 68.8658 3.00817 69.4343 2.3134 69.4343C1.05019 69.4343 0.418579 68.7079 0.418579 67.2552C0.418579 66.1815 1.23967 64.0025 2.88184 60.7181C4.83982 56.8022 7.49257 52.3809 10.8401 47.4544C7.99786 46.1912 6.57674 45.0859 6.57674 44.1384C6.57674 43.3805 7.11361 42.2752 8.18734 40.8225C10.9032 37.2224 14.6297 35.4223 19.3668 35.4223L33.8621 14.674C26.7881 15.7477 20.1563 17.3268 13.9665 19.4111L20.1247 19.9795C21.0089 20.0427 21.4511 20.2006 21.4511 20.4532C21.4511 21.0217 20.0931 21.5269 17.3772 21.9691C14.6613 22.4112 11.0927 22.6322 6.67148 22.6322C4.14506 22.6322 2.88184 21.9059 2.88184 20.4532C2.88184 18.7479 3.54503 16.5372 4.8714 13.8213C6.19778 11.0423 7.71363 9.05271 9.41897 7.85266C10.1137 7.41053 11.0611 6.93683 12.2612 6.43155C13.5244 5.92626 15.1666 5.38939 17.1877 4.82095C26.9145 2.04188 36.1991 0.652344 45.0416 0.652344C63.1687 0.652344 72.2322 5.32623 72.2322 14.674C72.2322 22.6322 68.1899 28.5693 60.1054 32.4853C52.8419 36.0223 40.5572 38.7382 23.2512 40.633L22.4932 41.9594C31.7778 44.9911 39.7992 47.8965 46.5574 50.6756C51.9261 52.8862 55.3683 54.4968 56.8842 55.5074C58.4632 56.4548 59.4422 57.6232 59.8212 59.0128C60.2633 60.4023 60.4843 62.8656 60.4843 66.4026C60.4843 68.8658 59.8527 70.0975 58.5895 70.0975C58.2106 70.0975 56.4421 69.3395 53.284 67.8237C48.6733 65.5499 44.0626 63.2761 39.4519 61.0023C31.6831 57.2759 24.1354 53.7073 16.8088 50.2966Z" fill="black"/>
<path d="M88.2812 26.0429C86.639 26.0429 85.8179 25.7587 85.8179 25.1903C86.7022 23.9902 87.6812 22.6322 88.7549 21.1164C89.8918 19.6005 90.9339 17.8636 91.8813 15.9056C92.3866 14.9582 92.8288 14.3898 93.2077 14.2003C93.6498 14.0108 94.7867 13.9161 96.6184 13.9161C98.0079 13.9161 98.7027 14.2635 98.7027 14.9582C98.7027 16.032 97.4711 17.9899 95.0078 20.8322C93.5551 22.4743 92.6393 23.4849 92.2603 23.8639C90.8076 25.3166 89.4812 26.0429 88.2812 26.0429ZM71.1331 49.2545C81.8704 44.3911 87.239 40.3804 87.239 37.2224C87.239 36.5276 87.018 36.1802 86.5759 36.1802C84.9337 36.1802 82.6915 37.1908 79.8492 39.2119C76.1859 41.8015 73.2805 45.149 71.1331 49.2545ZM70.7541 53.3283V53.802C70.7541 55.9495 71.291 57.6548 72.3647 58.918C73.5016 60.1181 75.0175 60.7181 76.9123 60.7181C79.2492 60.7181 82.0599 59.7707 85.3442 57.8759C89.0075 55.7916 92.8288 52.7915 96.8079 48.8755V53.0441C87.3338 63.5919 79.2176 68.8658 72.4594 68.8658C69.0488 68.8658 66.4276 67.7921 64.596 65.6446C62.7011 63.434 61.7537 60.276 61.7537 56.1705C61.7537 50.1703 64.5012 44.4858 69.9962 39.1172C75.5543 33.6854 81.4914 30.9695 87.8075 30.9695C92.2919 30.9695 94.5341 32.359 94.5341 35.1381C94.5341 38.1698 92.4814 41.4225 88.3759 44.8964C83.7652 48.8123 77.8913 51.623 70.7541 53.3283Z" fill="black"/>
<path d="M127.34 48.8755L127.434 53.0441C117.644 64.1604 110.002 69.7185 104.507 69.7185C101.854 69.7185 99.4542 68.2342 97.3067 65.2657C95.1593 62.2971 94.0855 58.7917 94.0855 54.7494C94.0855 48.7492 97.1173 43.2226 103.181 38.1698C105.897 35.8328 108.77 34.0012 111.802 32.6748C114.834 31.2853 117.171 30.5905 118.813 30.5905C121.718 30.5905 123.171 31.8853 123.171 34.4749C123.171 36.9381 121.971 39.6856 119.571 42.7173C117.171 45.6859 115.244 47.1702 113.792 47.1702C112.465 47.1702 111.802 46.0964 111.802 43.949C106.686 47.0438 103.054 50.2019 100.907 53.4231V54.3705C100.907 58.6654 102.833 60.8129 106.686 60.8129C109.465 60.8129 112.56 59.8023 115.971 57.7811C119.381 55.76 123.171 52.7915 127.34 48.8755Z" fill="black"/>
<path d="M123.194 57.2127L121.868 53.9915L128.31 47.7386C126.794 46.7912 126.036 45.6859 126.036 44.4227C126.036 41.8331 127.52 38.9593 130.489 35.8012C133.458 32.6432 135.952 31.0642 137.974 31.0642C138.795 31.0642 139.205 31.4747 139.205 32.2958C139.205 32.6748 138.826 33.5906 138.068 35.0433L149.248 34.3801C152.469 34.3801 154.08 36.4644 154.08 40.633C154.08 41.3278 153.606 42.1173 152.658 43.0016C150.637 44.9595 149.564 46.0017 149.437 46.128C147.542 48.1491 146.027 50.2019 144.89 52.2862C143.816 54.3073 143.279 55.8863 143.279 57.0232C143.279 58.918 144.1 59.8654 145.742 59.8654C147.448 59.8654 152.343 56.1705 160.427 48.7808V52.9494C155.564 58.318 151.427 62.3919 148.016 65.1709C144.669 67.8868 142.047 69.2448 140.153 69.2448C138.51 69.2448 137.089 68.55 135.889 67.1605C134.689 65.771 134.089 64.0025 134.089 61.855C134.089 59.0128 134.91 56.1705 136.552 53.3283C137.942 50.8651 140.342 47.8965 143.753 44.4227C141.921 44.8648 140.247 45.2438 138.731 45.5596C137.279 45.8122 135.763 46.0333 134.184 46.2227C132.1 48.4334 130.015 50.644 127.931 52.8546C126.099 54.6863 124.52 56.139 123.194 57.2127Z" fill="black"/>
<path d="M182.374 26.0429C180.732 26.0429 179.911 25.7587 179.911 25.1903C180.795 23.9902 181.774 22.6322 182.848 21.1164C183.985 19.6005 185.027 17.8636 185.975 15.9056C186.48 14.9582 186.922 14.3898 187.301 14.2003C187.743 14.0108 188.88 13.9161 190.712 13.9161C192.101 13.9161 192.796 14.2635 192.796 14.9582C192.796 16.032 191.564 17.9899 189.101 20.8322C187.648 22.4743 186.733 23.4849 186.354 23.8639C184.901 25.3166 183.575 26.0429 182.374 26.0429ZM165.226 49.2545C175.964 44.3911 181.332 40.3804 181.332 37.2224C181.332 36.5276 181.111 36.1802 180.669 36.1802C179.027 36.1802 176.785 37.1908 173.943 39.2119C170.279 41.8015 167.374 45.149 165.226 49.2545ZM164.847 53.3283V53.802C164.847 55.9495 165.384 57.6548 166.458 58.918C167.595 60.1181 169.111 60.7181 171.006 60.7181C173.343 60.7181 176.153 59.7707 179.438 57.8759C183.101 55.7916 186.922 52.7915 190.901 48.8755V53.0441C181.427 63.5919 173.311 68.8658 166.553 68.8658C163.142 68.8658 160.521 67.7921 158.689 65.6446C156.794 63.434 155.847 60.276 155.847 56.1705C155.847 50.1703 158.595 44.4858 164.089 39.1172C169.648 33.6854 175.585 30.9695 181.901 30.9695C186.385 30.9695 188.627 32.359 188.627 35.1381C188.627 38.1698 186.575 41.4225 182.469 44.8964C177.859 48.8123 171.985 51.623 164.847 53.3283Z" fill="black"/>
<path d="M248.476 25.5692C248.476 26.0113 248.16 26.2324 247.528 26.2324C246.139 26.2324 245.096 26.0113 244.402 25.5692C244.086 25.3797 243.423 24.8113 242.412 23.8639C240.517 22.1585 238.907 20.2637 237.58 18.1794C236.507 16.5372 235.97 15.4004 235.97 14.7688C235.97 14.2635 236.633 14.0108 237.959 14.0108C239.538 14.0108 240.454 14.0424 240.707 14.1056C241.275 14.2319 241.686 14.5477 241.938 15.053C243.138 17.3899 244.623 19.79 246.391 22.2533C247.781 24.2113 248.476 25.3166 248.476 25.5692ZM244.402 37.9803C228.296 44.8648 220.243 50.9914 220.243 56.36C220.243 58.0654 220.78 58.918 221.853 58.918C223.306 58.918 225.959 57.2443 229.812 53.8968C234.422 49.9176 239.286 44.6121 244.402 37.9803ZM236.822 54.3705C228.548 63.0866 223.085 67.4447 220.432 67.4447C219.232 67.4447 217.716 65.9604 215.885 62.9919C213.864 59.7075 212.853 56.6758 212.853 53.8968C212.853 49.665 215.948 44.9911 222.138 39.8751C225.801 36.7802 230.475 34.0643 236.159 31.7274C241.149 29.6431 244.875 28.6009 247.339 28.6009C248.476 28.6009 249.518 29.1694 250.465 30.3063C251.413 31.4432 251.886 32.4853 251.886 33.4327C251.886 33.938 251.318 34.5064 250.181 35.1381L248.476 36.1802L250.086 39.4961C250.465 40.2541 250.655 40.8541 250.655 41.2962C250.655 41.991 249.423 44.1069 246.96 47.6439C244.56 51.1177 243.36 53.8336 243.36 55.7916C243.36 57.3074 244.275 58.0654 246.107 58.0654C248.57 58.0654 253.086 54.9705 259.655 48.7808L259.75 52.8546C249.581 63.9077 242.886 69.4343 239.665 69.4343C238.212 69.4343 236.98 68.8974 235.97 67.8237C235.022 66.8131 234.549 65.4552 234.549 63.7498C234.549 62.5498 234.864 60.8444 235.496 58.6338C235.686 58.0022 236.128 56.5811 236.822 54.3705Z" fill="black"/>
<path d="M286.617 52.5704L283.68 54.6547L283.585 50.6756C288.196 45.8122 291.954 41.4541 294.859 37.6013C292.838 37.2855 291.196 37.1276 289.933 37.1276H288.038C287.406 37.1276 287.091 36.9381 287.091 36.5592C287.091 35.8644 287.754 34.538 289.08 32.58C290.407 30.5589 291.67 29.1378 292.87 28.3167C294.449 27.1798 297.67 26.6114 302.533 26.6114C304.618 23.8955 305.944 22.1901 306.513 21.4954C308.471 19.2847 310.997 18.1794 314.092 18.1794C314.66 18.1794 315.134 18.3057 315.513 18.5584C315.892 18.811 316.081 19.1584 316.081 19.6005C316.081 20.3585 315.702 21.1796 314.944 22.0638L310.965 26.8008C314.25 26.8008 315.892 27.3693 315.892 28.5062C315.892 28.6957 315.639 29.2325 315.134 30.1168C313.871 32.3274 312.165 34.4117 310.018 36.3697C308.376 37.8224 306.513 38.5487 304.428 38.5487L301.586 38.454C298.807 41.9278 296.659 45.4964 295.144 49.1597C293.691 52.7599 292.965 55.76 292.965 58.1601C292.965 60.0549 293.817 61.0023 295.523 61.0023C297.986 61.0023 303.702 56.9916 312.671 48.9702L312.765 53.0441C307.586 58.6022 302.944 62.8024 298.839 65.6446C294.796 68.4237 291.512 69.8132 288.985 69.8132C285.133 69.8132 283.206 67.8237 283.206 63.8446C283.206 62.2024 283.49 60.497 284.059 58.7285C284.564 56.8969 285.417 54.8442 286.617 52.5704Z" fill="black"/>
<path d="M327.555 27.0851C327.555 25.0008 328.376 23.0744 330.019 21.3059C331.724 19.4742 333.492 18.5584 335.324 18.5584C337.282 18.5584 338.261 19.6005 338.261 21.6848C338.261 23.4533 337.44 25.3482 335.798 27.3693C334.156 29.3273 332.482 30.3063 330.777 30.3063C329.829 30.3063 329.04 30.022 328.408 29.4536C327.84 28.822 327.555 28.0325 327.555 27.0851ZM336.935 48.8755L337.029 53.0441C328.755 63.2761 322.155 68.3921 317.229 68.3921C314.639 68.3921 312.618 67.3184 311.165 65.1709C309.649 62.9603 308.891 59.8654 308.891 55.8863C308.891 52.3493 309.618 49.1281 311.07 46.2227C312.523 43.3174 314.829 40.3172 317.987 37.2224C321.145 34.0643 324.018 32.4853 326.608 32.4853C328.692 32.4853 329.734 33.3696 329.734 35.1381C329.734 36.9066 328.724 39.2119 326.703 42.0541C324.682 44.8332 321.555 48.0228 317.323 51.623C317.008 52.8862 316.85 53.9283 316.85 54.7494C316.85 57.7811 318.366 59.297 321.397 59.297C322.913 59.297 324.934 58.4759 327.461 56.8337C330.05 55.1284 333.208 52.4757 336.935 48.8755Z" fill="black"/>
<path d="M340.334 65.2657C337.113 70.887 335.503 76.0977 335.503 80.8979C335.503 82.7928 335.882 84.8455 336.639 87.0561C338.913 86.235 341.029 83.9928 342.987 80.3295C344.945 76.6662 345.924 72.9713 345.924 69.2448L345.829 66.971C343.808 66.5289 341.976 65.9604 340.334 65.2657ZM353.693 65.4552L353.788 67.2552C353.788 73.8871 350.851 80.4874 344.977 87.0561C339.734 92.8669 335.503 95.7723 332.281 95.7723C330.955 95.7723 329.786 94.6354 328.776 92.3616C327.765 90.151 327.26 87.3087 327.26 83.8349C327.26 80.8664 327.892 77.5188 329.155 73.7924C330.418 70.1291 332.439 65.9289 335.218 61.1918C333.766 59.676 333.039 57.9075 333.039 55.8863C333.039 50.9598 335.092 48.4965 339.197 48.4965L341.282 48.5913C342.482 46.9491 343.619 45.2438 344.692 43.4753C346.208 40.8857 347.377 38.8961 348.198 37.5066C357.167 18.1794 363.609 8.51584 367.525 8.51584C368.788 8.51584 369.42 9.68431 369.42 12.0213C369.42 15.8109 368.409 19.6953 366.388 23.6744C364.935 26.5166 362.441 30.3063 358.904 35.0433C356.882 37.8224 354.83 40.6646 352.745 43.57C350.724 46.4122 348.64 49.665 346.492 53.3283C348.703 55.3495 350.535 57.7496 351.987 60.5286C357.546 57.4338 362.756 53.5494 367.62 48.8755L367.525 53.1388C364.935 56.2969 362.504 58.8865 360.23 60.9076C358.019 62.8656 355.84 64.3814 353.693 65.4552Z" fill="black"/>
<path d="M367.354 53.5178L368.207 53.4231C370.67 53.4231 373.038 55.2863 375.312 59.0128C377.523 57.4969 379.102 55.9495 380.049 54.3705C381.06 52.7915 381.565 50.8651 381.565 48.5913C381.565 46.6964 381.155 44.17 380.333 41.012C378.628 42.8437 376.575 44.8964 374.175 47.1702C371.144 49.9492 368.87 52.0651 367.354 53.5178ZM400.324 48.9702L400.419 53.0441C390.123 63.9077 381.976 69.3395 375.975 69.3395C372.881 69.3395 369.944 68.1395 367.165 65.7394C364.385 63.3393 362.996 60.8444 362.996 58.2548C362.996 56.1074 364.101 54.5915 366.312 53.7073V50.1071C373.828 42.591 378.628 37.5382 380.712 34.9486C381.155 32.7379 381.881 31.1905 382.892 30.3063C383.902 29.3589 385.449 28.8852 387.534 28.8852C388.671 28.8852 389.239 29.3904 389.239 30.401L389.05 32.1063C389.05 32.5485 389.334 34.0012 389.902 36.4644C390.534 38.9277 390.85 41.1067 390.85 43.0016C390.85 46.8544 389.587 50.5493 387.06 54.0862C384.534 57.6232 381.534 59.897 378.06 60.9076C379.323 61.2234 380.302 61.3813 380.997 61.3813C385.165 61.3813 391.608 57.2443 400.324 48.9702Z" fill="black"/>
</svg>
