<svg width="47" height="71" viewBox="0 0 47 71" fill="none" xmlns="http://www.w3.org/2000/svg">
<path fill-rule="evenodd" clip-rule="evenodd" d="M13.0093 0.319092C5.87226 0.319092 0.132265 6.30701 0.132265 13.6424C0.132265 18.102 2.2556 22.0628 5.51935 24.4808C3.83725 25.741 2.47379 27.3778 1.53829 29.26C0.602778 31.1421 0.121238 33.2173 0.132265 35.3191C0.132265 39.7816 2.2556 43.7395 5.51935 46.1574C3.83725 47.4177 2.47379 49.0545 1.53829 50.9366C0.602778 52.8188 0.121238 54.894 0.132265 56.9958C0.132265 64.3312 5.87226 70.3191 13.0093 70.3191C20.1435 70.3191 25.8864 64.3312 25.8864 56.9958V45.7316C28.142 47.6122 30.9851 48.6432 33.9218 48.6453C41.0589 48.6424 46.7989 42.6545 46.7989 35.3191C46.8106 33.2172 46.3294 31.1418 45.3938 29.2595C44.4583 27.3772 43.0945 25.7405 41.4118 24.4808C43.0939 23.2205 44.4574 21.5837 45.3929 19.7015C46.3284 17.8194 46.81 15.7442 46.7989 13.6424C46.7989 6.30701 41.0589 0.319092 33.9218 0.319092H13.0093ZM4.97101 13.6424C4.97101 9.00201 8.59351 5.28618 13.0093 5.28618H21.0448V21.9987H13.0093C8.59351 21.9987 4.97101 18.2799 4.97101 13.6424ZM33.9218 21.9958H25.8864V5.28326H33.9218C38.3406 5.28326 41.9602 9.00201 41.9602 13.6424C41.9602 18.2799 38.3406 21.9958 33.9218 21.9958ZM4.97393 35.3191C4.97393 30.6816 8.59643 26.9628 13.0123 26.9628H21.0477V43.6753H13.0093C8.5906 43.6753 4.97101 39.9566 4.97101 35.3191H4.97393ZM25.8864 35.3191C25.8864 30.6816 29.5089 26.9628 33.9248 26.9628C38.3435 26.9628 41.9631 30.6787 41.9631 35.3191C41.9631 39.9566 38.3435 43.6753 33.9248 43.6753C29.5089 43.6753 25.8893 39.9595 25.8893 35.3191H25.8864ZM4.97393 56.9958C4.97393 52.3583 8.59643 48.6424 13.0123 48.6424H21.0477V56.9958C21.0477 61.6362 17.431 65.352 13.0123 65.352C8.59643 65.352 4.97393 61.6362 4.97393 56.9958Z" fill="black"/>
</svg>
