<svg width="71" height="71" viewBox="0 0 71 71" fill="none" xmlns="http://www.w3.org/2000/svg">
<path d="M68.8058 32.1997L38.2421 1.64034C37.8236 1.22166 37.3268 0.889533 36.7799 0.662933C36.233 0.436334 35.6469 0.319702 35.0549 0.319702C34.4629 0.319702 33.8768 0.436334 33.3299 0.662933C32.7831 0.889533 32.2862 1.22166 31.8677 1.64034L25.524 7.98409L33.574 16.0341C34.5234 15.7099 35.5448 15.6592 36.5216 15.8877C37.4984 16.1163 38.3913 16.6148 39.0984 17.3264C39.8055 18.0381 40.2983 18.9342 40.5205 19.9125C40.7427 20.8907 40.6855 21.9118 40.3552 22.8591L48.1121 30.6203C49.2597 30.2163 50.5107 30.215 51.6591 30.6169C52.8075 31.0187 53.7849 31.7996 54.4302 32.831C55.0755 33.8625 55.3504 35.0829 55.2095 36.2914C55.0687 37.4999 54.5205 38.6244 53.6552 39.4797C52.7793 40.361 51.6245 40.9109 50.3882 41.0354C49.1519 41.1598 47.9107 40.8512 46.8766 40.1622C45.8426 39.4732 45.0799 38.4465 44.7187 37.2576C44.3575 36.0687 44.4204 34.7912 44.8965 33.6435L37.6646 26.4072V45.4516C38.7638 45.9957 39.6434 46.9002 40.1567 48.0142C40.6699 49.1282 40.7859 50.3844 40.4852 51.5735C40.1845 52.7627 39.4854 53.8128 38.5043 54.549C37.5232 55.2851 36.3194 55.6628 35.0937 55.619C33.8679 55.5752 32.6941 55.1126 31.7681 54.3084C30.842 53.5041 30.2196 52.4068 30.0045 51.1992C29.7894 49.9917 29.9946 48.7469 30.5861 47.6724C31.1775 46.5978 32.1193 45.7584 33.2546 45.2941V26.0747C32.5996 25.8063 32.0042 25.411 31.5028 24.9114C31.0013 24.4118 30.6037 23.8179 30.3328 23.1639C30.0619 22.51 29.9232 21.8089 29.9246 21.101C29.926 20.3932 30.0674 19.6926 30.3408 19.0397L22.409 11.1035L1.45272 32.0597C1.03404 32.4782 0.701911 32.9751 0.475311 33.5219C0.248712 34.0688 0.13208 34.6549 0.13208 35.2469C0.13208 35.8389 0.248712 36.425 0.475311 36.9719C0.701911 37.5188 1.03404 38.0156 1.45272 38.4341L32.0165 68.9978C32.4349 69.4165 32.9318 69.7486 33.4787 69.9753C34.0255 70.2019 34.6117 70.3185 35.2037 70.3185C35.7956 70.3185 36.3818 70.2019 36.9286 69.9753C37.4755 69.7486 37.9724 69.4165 38.3908 68.9978L68.8102 38.5785C69.6547 37.7327 70.129 36.5864 70.129 35.3913C70.129 34.1961 69.6547 33.0498 68.8102 32.2041" fill="black"/>
</svg>
