<svg width="71" height="69" viewBox="0 0 71 69" fill="none" xmlns="http://www.w3.org/2000/svg">
<path d="M0.13208 0.319092V68.5647H70.1321V0.319092H0.13208ZM3.04802 3.23503H67.214V65.6466H3.04802V3.23503ZM24.4111 38.9657L22.099 47.7047C22.053 47.9563 21.9611 48 21.6768 48H17.3936C17.0983 48 17.0524 47.9082 17.0983 47.5778L25.3802 18.5716C25.529 18.0466 25.6186 17.5807 25.6646 16.1325C25.6646 15.9378 25.7674 15.8482 25.9161 15.8482H32.0236C32.2183 15.8482 32.319 15.8941 32.3649 16.1325L41.6508 47.6238C41.7077 47.8622 41.6508 48 41.4124 48H36.6043C36.3527 48 36.2171 47.9432 36.1711 47.7485L33.7561 38.9635H24.4024L24.4111 38.9657ZM32.5465 34.2253C31.7261 31.001 29.8011 23.9375 29.0836 20.5185H29.0268C28.4121 23.9244 26.8611 29.7016 25.6668 34.2253H32.5465ZM45.6715 18.0138C45.6715 16.1347 46.9708 15.0278 48.6574 15.0278C50.4358 15.0278 51.6433 16.2353 51.6433 18.0138C51.6433 19.9388 50.3899 20.9997 48.6005 20.9997C46.8571 20.9997 45.6605 19.941 45.6605 18.0138H45.6715ZM46.0018 24.6441C46.0018 24.4166 46.0936 24.3247 46.3321 24.3247H50.9127C51.1752 24.3247 51.2649 24.4166 51.2649 24.666V47.6916C51.2649 47.93 51.219 48.0219 50.9236 48.0219H46.4108C46.1155 48.0219 46.0236 47.8841 46.0236 47.6457V24.6419L46.0018 24.6441Z" fill="black"/>
</svg>
