<svg width="71" height="71" viewBox="0 0 71 71" fill="none" xmlns="http://www.w3.org/2000/svg">
<path fill-rule="evenodd" clip-rule="evenodd" d="M0.13208 0.319092H70.1321V70.3191H0.13208V0.319092ZM53.6442 59.0024C50.3979 59.0024 48.5633 57.3108 47.1546 55.0066L41.8083 58.1128C43.7392 61.9278 47.6854 64.8387 53.7958 64.8387C60.0433 64.8387 64.6954 61.5953 64.6954 55.6716C64.6954 50.1795 61.5396 47.7383 55.9512 45.3378L54.3062 44.6349C51.4829 43.4099 50.2608 42.6137 50.2608 40.6391C50.2608 39.0437 51.4858 37.8216 53.4108 37.8216C55.2979 37.8216 56.5142 38.6178 57.6429 40.6391L62.7646 37.352C60.5975 33.5399 57.5933 32.0845 53.4108 32.0845C47.5367 32.0845 43.7771 35.8412 43.7771 40.7762C43.7771 46.1283 46.9271 48.6628 51.6754 50.6841L53.3204 51.3899C56.3217 52.7024 58.1096 53.5016 58.1096 55.7562C58.1096 57.6403 56.3683 59.0024 53.6442 59.0024ZM28.1525 58.9587C25.8921 58.9587 24.95 57.4128 23.9175 55.5753L18.5625 58.8187C20.1142 62.1028 23.165 64.827 28.4296 64.827C34.26 64.827 38.2529 61.7266 38.2529 54.9162V32.4578H31.6758V54.8287C31.6758 58.1158 30.3108 58.9587 28.1496 58.9587H28.1525Z" fill="black"/>
</svg>
