<svg width="71" height="69" viewBox="0 0 71 69" fill="none" xmlns="http://www.w3.org/2000/svg">
<path d="M0.13208 0.319092V68.5647H70.1321V0.319092H0.13208ZM3.04802 3.23503H67.214V65.6466H3.04802V3.23503ZM17.0502 16.3032C17.0502 16.1085 17.4615 15.9619 17.6999 15.9619C20.2053 15.8559 22.7128 15.8063 25.2205 15.8132C33.3099 15.8132 36.4533 20.245 36.4533 25.9194C36.4533 33.3372 31.0765 36.5157 24.4899 36.5157C23.3743 36.5157 22.998 36.4588 22.2236 36.4588V47.6697C22.2236 47.9082 22.1318 48.011 21.8933 48.011H17.3805C17.1421 48.011 17.0502 47.9191 17.0502 47.6807V16.3032ZM22.2236 31.7994C22.8952 31.8453 23.4311 31.8453 24.5927 31.8453C27.9986 31.8453 31.2121 30.6378 31.2121 26.0244C31.2121 22.321 28.9108 20.4419 25.0149 20.4419C23.8643 20.4419 22.7596 20.4878 22.2236 20.5338V31.7994ZM47.334 28.3235C45.0218 28.3235 44.2474 29.485 44.2474 30.4432C44.2474 31.5019 44.7724 32.2216 47.859 33.8163C52.4286 36.0388 53.8746 38.1453 53.8746 41.2778C53.8746 45.9372 50.309 48.4441 45.5008 48.4441C42.948 48.4441 40.7736 47.9082 39.5202 47.1907C39.3386 47.0988 39.2927 46.9522 39.2927 46.7116V42.4285C39.2927 42.1441 39.4305 42.0413 39.623 42.19C41.3688 43.3252 43.4075 43.9272 45.4899 43.9225C47.8021 43.9225 48.7602 42.9644 48.7602 41.6563C48.7602 40.5975 48.0886 39.6853 45.1596 38.1475C41.0121 36.1657 39.2796 34.1488 39.2796 30.7757C39.2796 27.0153 42.2196 23.8938 47.3121 23.8938C49.819 23.8938 51.5843 24.281 52.5533 24.7032C52.7918 24.8519 52.8377 25.0903 52.8377 25.285V29.2838C52.8377 29.5222 52.689 29.671 52.4046 29.5682C51.1052 28.8047 49.1911 28.3147 47.323 28.3147L47.334 28.3235Z" fill="black"/>
</svg>
