<svg width="71" height="39" viewBox="0 0 71 39" fill="none" xmlns="http://www.w3.org/2000/svg">
<path d="M35.1321 0.360779C15.5058 0.360779 0.13208 8.68786 0.13208 19.3191C0.13208 29.9504 15.5058 38.2774 35.1321 38.2774C54.7583 38.2774 70.1321 29.9504 70.1321 19.3191C70.1321 8.68786 54.7583 0.360779 35.1321 0.360779ZM31.4979 6.19411H35.3187L34.1054 12.0274H37.5179C39.6821 12.0274 41.1346 12.3308 41.9629 13.0862C42.7708 13.8329 43.0158 15.0579 42.6921 16.7262L41.1754 23.6941H37.2904L38.6875 17.2512C38.8567 16.3674 38.7896 15.752 38.4921 15.4283C38.1975 15.1045 37.5471 14.9441 36.5729 14.9441H33.5133L31.6671 23.6941H27.8404L31.4979 6.19411ZM14.7154 12.0274H22.4912C26.1983 12.0274 28.4442 14.5124 27.5662 18.2195C26.5454 22.5274 23.8154 23.6941 18.7871 23.6941H16.3837L15.6225 28.0691H11.7579L14.7154 12.0274ZM45.3404 12.0274H53.1162C56.8233 12.0274 59.0692 14.5124 58.1912 18.2195C57.1704 22.5274 54.4375 23.6941 49.4121 23.6941H47.0088L46.2475 28.0691H42.3829L45.3404 12.0274ZM18.0258 14.9441L16.9262 20.7774H19.42C21.5783 20.7774 23.585 20.5324 23.9204 17.3124C24.0458 16.067 23.5267 14.9441 21.0329 14.9441H18.0258ZM48.6508 14.9441L47.5512 20.7774H50.045C52.2033 20.7774 54.21 20.5324 54.5454 17.3124C54.6708 16.067 54.1546 14.9441 51.6579 14.9441H48.6508Z" fill="black"/>
</svg>
