<svg width="71" height="63" viewBox="0 0 71 63" fill="none" xmlns="http://www.w3.org/2000/svg">
<path d="M70.1321 31.4953C70.1321 26.8578 64.325 22.4624 55.4204 19.7383C57.4767 10.6645 56.5638 3.44284 52.5387 1.12993C51.5635 0.583693 50.4596 0.308744 49.3421 0.333675V3.51284C49.9983 3.51284 50.5262 3.64409 50.9696 3.88618C52.9092 5.00034 53.7521 9.23534 53.0958 14.6866C52.9383 16.0283 52.6817 17.4399 52.3667 18.8808C49.3848 18.1622 46.3584 17.6429 43.3075 17.3262C41.49 14.8187 39.5071 12.4353 37.3721 10.192C42.0242 5.86951 46.3904 3.50118 49.3596 3.50118V0.319092C45.4338 0.319092 40.2975 3.11618 35.1029 7.96659C29.9112 3.14826 24.7721 0.377425 20.8492 0.377425V3.55659C23.8037 3.55659 28.1846 5.91326 32.8367 10.2066C30.8387 12.3066 28.8408 14.6866 26.9421 17.3262C23.8849 17.6393 20.8531 18.1637 17.8683 18.8953C17.5529 17.5297 17.3047 16.1495 17.1246 14.7595C16.4537 9.30534 17.2821 5.07034 19.21 3.94451C19.6358 3.68784 20.1929 3.57118 20.8492 3.57118V0.392008C19.6533 0.392008 18.5654 0.648675 17.6262 1.18826C13.6158 3.50118 12.7175 10.7053 14.7854 19.7528C5.91 22.4945 0.13208 26.8724 0.13208 31.4953C0.13208 36.1328 5.93916 40.5283 14.8437 43.2495C12.7875 52.3262 13.7004 59.5478 17.7254 61.8578C18.6529 62.4003 19.7379 62.657 20.9337 62.657C24.8596 62.657 29.9958 59.8599 35.1904 55.0095C40.3821 59.8308 45.5183 62.5987 49.4442 62.5987C50.5703 62.6225 51.6825 62.3467 52.6671 61.7995C56.6775 59.4895 57.5758 52.2853 55.5079 43.2378C64.3542 40.5137 70.1321 36.1183 70.1321 31.4953ZM51.5529 21.9783C50.9987 23.8853 50.3563 25.7657 49.6279 27.6133C48.4355 25.2938 47.1262 23.0363 45.705 20.8495C47.7321 21.1499 49.6862 21.5203 51.5558 21.9783H51.5529ZM45.0196 37.1741C43.9513 39.0392 42.804 40.8579 41.5808 42.6253C37.2999 43.0027 32.9943 43.0075 28.7125 42.6399C26.2565 39.1317 24.1086 35.4176 22.2929 31.5391C24.1059 27.6515 26.2446 23.9243 28.6862 20.3974C32.9661 20.0193 37.2708 20.0135 41.5517 20.3799C42.7358 22.0774 43.8937 23.8916 45.005 25.8049C46.09 27.6716 47.0758 29.5674 47.9742 31.4808C47.0659 33.4173 46.0802 35.3166 45.0196 37.1741ZM49.6279 35.3191C50.3979 37.2295 51.0571 39.1428 51.5967 40.9978C49.73 41.4558 47.7583 41.8408 45.7196 42.1383C47.1349 39.9316 48.4393 37.6557 49.6279 35.3191ZM35.1612 50.5441C33.8342 49.1733 32.5071 47.6478 31.1946 45.9766C32.4779 46.0349 33.7904 46.0787 35.1175 46.0787C36.4592 46.0787 37.7862 46.0495 39.0842 45.9766C37.8008 47.6478 36.4737 49.1733 35.1612 50.5441ZM24.5446 42.1383C22.578 41.8533 20.6256 41.4776 18.6937 41.0124C19.2217 39.172 19.8779 37.2733 20.6187 35.3774C21.205 36.5149 21.8204 37.6583 22.4912 38.8016C23.1621 39.942 23.8446 41.0562 24.5446 42.1383ZM35.0883 12.4466C36.4154 13.8174 37.7425 15.3428 39.055 17.0141C37.7717 16.9558 36.4592 16.912 35.1321 16.912C33.7904 16.912 32.4633 16.9412 31.1654 17.0141C32.4487 15.3428 33.7758 13.8174 35.0883 12.4466ZM24.53 20.8524C23.115 23.0543 21.8106 25.3253 20.6217 27.657C19.8727 25.7975 19.2157 23.9023 18.6529 21.9783C20.5196 21.5349 22.4912 21.1499 24.53 20.8524ZM11.6179 38.7141C6.56625 36.5616 3.29958 33.7353 3.29958 31.4953C3.29958 29.2553 6.56625 26.4145 11.6179 24.2766C12.8429 23.7487 14.1846 23.2762 15.57 22.8358C16.3837 25.6299 17.4542 28.5408 18.7783 31.5245C17.5281 34.3309 16.4708 37.2192 15.6137 40.1695C14.2588 39.75 12.9253 39.2643 11.6179 38.7141ZM19.2946 59.1016C17.355 57.9933 16.5121 53.7524 17.1683 48.3041C17.3258 46.9624 17.5825 45.5478 17.8975 44.107C20.6917 44.7924 23.7454 45.3203 26.9567 45.6645C28.7743 48.1719 30.7571 50.5553 32.8921 52.7987C28.24 57.1212 23.8737 59.4895 20.9046 59.4895C20.3444 59.4956 19.7914 59.3634 19.2946 59.1045V59.1016ZM53.1396 48.2312C53.8104 53.6824 52.9821 57.9203 51.0542 59.0462C50.6283 59.3028 50.0712 59.4166 49.415 59.4166C46.4604 59.4166 42.0796 57.0628 37.4275 52.7666C39.5535 50.5326 41.5231 48.1548 43.3221 45.6499C46.3792 45.3368 49.4111 44.8125 52.3958 44.0808C52.7254 45.5216 52.9792 46.9041 53.1396 48.2312ZM58.6317 38.7141C57.4067 39.242 56.065 39.7145 54.6796 40.1549C53.8074 37.1896 52.7355 34.2867 51.4712 31.4662C52.7837 28.4999 53.8367 25.6037 54.6358 22.8212C55.9951 23.2421 57.3334 23.7278 58.6462 24.2766C63.6979 26.4291 66.9646 29.2553 66.9646 31.4953C66.95 33.7353 63.6833 36.5762 58.6317 38.7141Z" fill="black"/>
<path d="M35.1176 38.017C36.8473 38.017 38.5061 37.3299 39.7291 36.1069C40.9522 34.8838 41.6393 33.225 41.6393 31.4954C41.6393 29.7657 40.9522 28.1069 39.7291 26.8838C38.5061 25.6608 36.8473 24.9737 35.1176 24.9737C33.388 24.9737 31.7291 25.6608 30.5061 26.8838C29.283 28.1069 28.5959 29.7657 28.5959 31.4954C28.5959 33.225 29.283 34.8838 30.5061 36.1069C31.7291 37.3299 33.388 38.017 35.1176 38.017Z" fill="black"/>
</svg>
