<svg width="71" height="71" viewBox="0 0 71 71" fill="none" xmlns="http://www.w3.org/2000/svg">
<path d="M35.1321 0.319092C54.3821 0.319092 70.1321 16.0691 70.1321 35.3191C70.1321 54.5691 54.3821 70.3191 35.1321 70.3191C15.8821 70.3191 0.13208 54.5691 0.13208 35.3191C0.13208 16.0691 15.8821 0.319092 35.1321 0.319092ZM28.1321 46.9128C28.5696 48.8816 28.5696 50.6316 28.1321 52.1628L27.9133 52.8191C27.9133 53.0378 27.6946 53.2566 27.6946 53.2566C27.2571 54.1316 26.8196 54.7878 26.1633 55.6628C24.1946 57.8503 21.3508 58.7253 20.0383 58.0691C18.7258 57.4128 19.3821 54.1316 21.7883 51.7253C24.4133 49.1003 27.9133 47.3503 27.9133 47.3503L28.1321 46.9128ZM57.0071 15.1941C55.4758 9.06909 45.1946 6.88159 35.3508 10.3816C29.6633 12.5691 23.3196 15.8503 18.7258 20.0066C13.2571 25.0378 12.6008 29.4128 12.8196 31.1628C14.1321 37.5066 22.8821 41.8816 26.6008 44.9441C25.5071 45.3816 17.6321 49.3191 15.8821 53.4753C13.9133 57.8503 16.1008 60.9128 17.6321 61.1316C22.2258 62.4441 27.0383 60.0378 29.4446 56.3191C31.8508 52.6003 31.6321 48.0066 30.5383 45.6003C32.24 45.0748 34.0488 44.9995 35.7883 45.3816C41.9133 46.0378 43.2258 49.9753 42.7883 51.5066C42.3508 53.0378 41.2571 53.9128 40.8196 54.3503C40.3821 54.5691 40.1633 54.7878 40.3821 54.7878C40.3821 55.0066 40.6008 55.0066 41.0383 55.0066C41.4758 55.0066 44.3196 53.6941 44.3196 50.6316C44.5383 46.9128 40.8196 42.7566 34.4758 42.7566C31.8508 42.7566 30.1008 42.9753 29.0071 43.4128C29.0071 43.1941 28.7883 43.1941 28.7883 43.1941C24.8508 39.0378 17.6321 35.9753 17.8508 30.2878C17.8508 28.3191 18.7258 22.8503 31.8508 16.2878C42.5696 10.8191 51.3196 12.3503 52.8508 15.6316C55.0383 20.2253 48.2571 28.9753 37.1008 30.2878C32.7258 30.7253 30.5383 29.1941 30.1008 28.5378C29.4446 27.8816 29.4446 27.8816 29.2258 27.8816C28.7883 28.1003 29.0071 28.5378 29.2258 28.9753C29.6633 29.8503 30.9758 31.3816 33.3821 32.2566C35.3508 32.9128 40.3821 33.3503 46.5071 30.9441C53.2883 28.3191 58.5383 21.1003 57.0071 14.9753V15.1941Z" fill="black"/>
</svg>
