<svg width="51" height="51" viewBox="0 0 51 51" fill="none" xmlns="http://www.w3.org/2000/svg">
<path d="M6.04398e-06 25.5C5.45274e-06 32.263 2.6866 38.749 7.46878 43.5312C12.251 48.3134 18.737 51 25.5 51C32.263 51 38.749 48.3134 43.5312 43.5312C48.3134 38.749 51 32.263 51 25.5C51 18.737 48.3134 12.251 43.5312 7.46877C38.7491 2.68659 32.263 -5.45274e-06 25.5 -6.04398e-06C18.737 -6.63522e-06 12.251 2.68659 7.46878 7.46877C2.68661 12.2509 6.63522e-06 18.737 6.04398e-06 25.5ZM18.819 34.4346C18.672 34.5868 18.4961 34.7082 18.3017 34.7917C18.1072 34.8752 17.8981 34.9192 17.6865 34.9211C17.4749 34.9229 17.265 34.8826 17.0691 34.8024C16.8733 34.7223 16.6953 34.604 16.5457 34.4543C16.396 34.3047 16.2777 34.1267 16.1976 33.9309C16.1174 33.735 16.0771 33.5251 16.0789 33.3135C16.0808 33.1019 16.1248 32.8928 16.2083 32.6983C16.2918 32.5039 16.4132 32.328 16.5654 32.181L29.6214 19.125L20.7984 19.125C20.3758 19.125 19.9704 18.9571 19.6715 18.6582C19.3726 18.3593 19.2047 17.9539 19.2047 17.5312C19.2047 17.1086 19.3726 16.7032 19.6715 16.4043C19.9704 16.1054 20.3758 15.9375 20.7984 15.9375L33.4688 15.9375C33.8914 15.9375 34.2968 16.1054 34.5957 16.4043C34.8946 16.7032 35.0625 17.1086 35.0625 17.5312L35.0625 30.2016C35.0625 30.6242 34.8946 31.0296 34.5957 31.3285C34.2968 31.6274 33.8914 31.7953 33.4688 31.7953C33.0461 31.7953 32.6407 31.6274 32.3418 31.3285C32.0429 31.0296 31.875 30.6242 31.875 30.2016L31.875 21.3786L18.819 34.4346V34.4346Z" fill="#0099FF"/>
</svg>
