<svg width="51" height="51" viewBox="0 0 51 51" fill="none" xmlns="http://www.w3.org/2000/svg">
<g clip-path="url(#clip0_14_4)">
<path d="M20.2037 23.4566C20.6892 23.1051 20.9236 22.5247 20.9236 21.7267C20.9403 21.3472 20.8622 20.9734 20.6948 20.633C20.5441 20.3595 20.3209 20.1307 20.0475 19.9689C19.764 19.797 19.4491 19.6831 19.1211 19.6341C18.764 19.5671 18.4013 19.5336 18.0441 19.5392H14.1211V23.9868H18.3678C19.0988 23.9923 19.7182 23.8138 20.2037 23.4566V23.4566ZM20.8622 27.4745C20.3153 27.056 19.5843 26.8495 18.6747 26.8495H14.11V32.095H18.5854C19.004 32.095 19.389 32.056 19.7629 31.9778C20.1166 31.9087 20.4538 31.7723 20.7562 31.576C21.0408 31.3919 21.2696 31.1408 21.4426 30.8171C21.61 30.4935 21.6937 30.0805 21.6937 29.5839C21.6937 28.5961 21.4147 27.8986 20.8622 27.4745V27.4745ZM25.3209 0.78363C11.5151 0.78363 0.320923 11.9778 0.320923 25.7836C0.320923 39.5894 11.5151 50.7836 25.3209 50.7836C39.1267 50.7836 50.3209 39.5894 50.3209 25.7836C50.3209 11.9778 39.1267 0.78363 25.3209 0.78363ZM30.1479 16.7937H37.8711V18.6743H30.1479V16.7937ZM25.3209 32.3015C24.9597 32.9872 24.4439 33.5794 23.8142 34.0314C23.1557 34.489 22.4247 34.8238 21.649 35.0191C20.8375 35.2366 20.0004 35.3436 19.1602 35.3372H9.91914V16.3026H18.9035C19.8131 16.3026 20.639 16.3863 21.3924 16.5426C22.1401 16.6988 22.7763 16.9667 23.312 17.3294C23.8421 17.6921 24.2607 18.1776 24.5564 18.7803C24.8466 19.3774 24.9973 20.1251 24.9973 21.0124C24.9973 21.9722 24.7796 22.7647 24.3444 23.4064C23.9035 24.0481 23.2674 24.5671 22.4024 24.9745C23.5799 25.3093 24.4448 25.9064 25.014 26.7435C25.5944 27.5917 25.879 28.6073 25.879 29.8015C25.879 30.7725 25.6948 31.6039 25.3209 32.3015ZM40.879 29.3551H30.9236C30.9236 30.4376 31.2975 31.4756 31.8611 32.0336C32.4303 32.5861 33.245 32.8651 34.3109 32.8651C35.081 32.8651 35.7339 32.6698 36.2919 32.2847C36.8444 31.8997 37.1792 31.4923 37.3019 31.0682H40.639C40.1033 32.7256 39.2886 33.9086 38.1836 34.6229C37.0899 35.3372 35.7506 35.6943 34.1937 35.6943C33.1055 35.6943 32.129 35.5158 31.2528 35.1754C30.4102 34.8461 29.6513 34.3439 29.0263 33.6966C28.41 33.0318 27.9337 32.25 27.6256 31.3975C27.2852 30.4544 27.1178 29.4611 27.129 28.4622C27.129 27.4298 27.3019 26.47 27.6368 25.5772C28.2785 23.8417 29.6122 22.4522 31.3142 21.7323C32.2238 21.3528 33.2004 21.1631 34.1881 21.1743C35.36 21.1743 36.3756 21.3975 37.2573 21.8551C38.1061 22.292 38.8431 22.9183 39.4113 23.6854C39.9749 24.4499 40.3711 25.3205 40.6223 26.3026C40.8622 27.268 40.9459 28.2836 40.879 29.3551V29.3551ZM34.0709 24.0202C33.4682 24.0202 32.9604 24.1263 32.5698 24.3327C32.1792 24.5392 31.8555 24.7959 31.61 25.0917C31.3761 25.3772 31.2033 25.7077 31.1022 26.0626C31.0129 26.3584 30.9515 26.6597 30.9292 26.9667H37.0955C37.0062 26.0013 36.6714 25.287 36.2249 24.7847C35.7562 24.2881 35.0028 24.0202 34.0709 24.0202V24.0202Z" fill="white"/>
</g>
<defs>
<clipPath id="clip0_14_4">
<rect width="50" height="50" fill="white" transform="translate(0.320923 0.78363)"/>
</clipPath>
</defs>
</svg>
