<svg width="51" height="51" viewBox="0 0 51 51" fill="none" xmlns="http://www.w3.org/2000/svg">
<g clip-path="url(#clip0_13_97)">
<path fill-rule="evenodd" clip-rule="evenodd" d="M25.3209 0.78363C11.5084 0.78363 0.320923 11.9711 0.320923 25.7836C0.320923 36.8461 7.47717 46.1899 17.4147 49.5024C18.6647 49.7211 19.1334 48.9711 19.1334 48.3149C19.1334 47.7211 19.1022 45.7524 19.1022 43.6586C12.8209 44.8149 11.1959 42.1274 10.6959 40.7211C10.4147 40.0024 9.19592 37.7836 8.13342 37.1899C7.25842 36.7211 6.00842 35.5649 8.10217 35.5336C10.0709 35.5024 11.4772 37.3461 11.9459 38.0961C14.1959 41.8774 17.7897 40.8149 19.2272 40.1586C19.4459 38.5336 20.1022 37.4399 20.8209 36.8149C15.2584 36.1899 9.44592 34.0336 9.44592 24.4711C9.44592 21.7524 10.4147 19.5024 12.0084 17.7524C11.7584 17.1274 10.8834 14.5649 12.2584 11.1274C12.2584 11.1274 14.3522 10.4711 19.1334 13.6899C21.1334 13.1274 23.2584 12.8461 25.3834 12.8461C27.5084 12.8461 29.6334 13.1274 31.6334 13.6899C36.4147 10.4399 38.5084 11.1274 38.5084 11.1274C39.8834 14.5649 39.0084 17.1274 38.7584 17.7524C40.3522 19.5024 41.3209 21.7211 41.3209 24.4711C41.3209 34.0649 35.4772 36.1899 29.9147 36.8149C30.8209 37.5961 31.6022 39.0961 31.6022 41.4399C31.6022 44.7836 31.5709 47.4711 31.5709 48.3149C31.5709 48.9711 32.0397 49.7524 33.2897 49.5024C38.2525 47.8268 42.565 44.6371 45.6202 40.3823C48.6754 36.1275 50.3194 31.0217 50.3209 25.7836C50.3209 11.9711 39.1334 0.78363 25.3209 0.78363Z" fill="#0099ff"/>
</g>
<defs>
<clipPath id="clip0_13_97">
<rect width="50" height="50" fill="white" transform="translate(0.320923 0.78363)"/>
</clipPath>
</defs>
</svg>
