<svg width="51" height="51" viewBox="0 0 51 51" fill="none" xmlns="http://www.w3.org/2000/svg">
<g clip-path="url(#clip0_14_2)">
<path d="M25.3142 17.4469C20.7237 17.4469 16.9775 21.1931 16.9775 25.7837C16.9775 30.3742 20.7237 34.1204 25.3142 34.1204C29.9047 34.1204 33.6509 30.3742 33.6509 25.7837C33.6509 21.1931 29.9047 17.4469 25.3142 17.4469ZM50.3181 25.7837C50.3181 22.3314 50.3494 18.9104 50.1555 15.4644C49.9616 11.4617 49.0485 7.90941 46.1216 4.98249C43.1884 2.04931 39.6424 1.14246 35.6397 0.948586C32.1875 0.754708 28.7665 0.785979 25.3205 0.785979C21.8682 0.785979 18.4472 0.754708 15.0012 0.948586C10.9985 1.14246 7.44621 2.05556 4.51929 4.98249C1.58611 7.91566 0.679267 11.4617 0.48539 15.4644C0.291512 18.9166 0.322783 22.3376 0.322783 25.7837C0.322783 29.2297 0.291512 32.6569 0.48539 36.1029C0.679267 40.1056 1.59237 43.6579 4.51929 46.5848C7.45247 49.518 10.9985 50.4248 15.0012 50.6187C18.4534 50.8126 21.8744 50.7813 25.3205 50.7813C28.7727 50.7813 32.1937 50.8126 35.6397 50.6187C39.6424 50.4248 43.1947 49.5117 46.1216 46.5848C49.0548 43.6516 49.9616 40.1056 50.1555 36.1029C50.3557 32.6569 50.3181 29.2359 50.3181 25.7837V25.7837ZM25.3142 38.6108C18.2158 38.6108 12.487 32.8821 12.487 25.7837C12.487 18.6852 18.2158 12.9565 25.3142 12.9565C32.4126 12.9565 38.1414 18.6852 38.1414 25.7837C38.1414 32.8821 32.4126 38.6108 25.3142 38.6108ZM38.6667 15.4268C37.0094 15.4268 35.671 14.0885 35.671 12.4311C35.671 10.7738 37.0094 9.43541 38.6667 9.43541C40.3241 9.43541 41.6624 10.7738 41.6624 12.4311C41.6629 12.8247 41.5858 13.2144 41.4354 13.5781C41.285 13.9418 41.0644 14.2722 40.7861 14.5505C40.5078 14.8288 40.1774 15.0494 39.8137 15.1998C39.45 15.3502 39.0603 15.4273 38.6667 15.4268V15.4268Z" fill="white"/>
</g>
<defs>
<clipPath id="clip0_14_2">
<rect width="50" height="50" fill="white" transform="translate(0.320923 0.78363)"/>
</clipPath>
</defs>
</svg>
