<svg width="51" height="51" viewBox="0 0 51 51" fill="none" xmlns="http://www.w3.org/2000/svg">
<g clip-path="url(#clip0_13_101)">
<path d="M25.3209 0.78363C11.5136 0.78363 0.320923 11.9763 0.320923 25.7836C0.320923 39.5909 11.5136 50.7836 25.3209 50.7836C39.1282 50.7836 50.3209 39.5909 50.3209 25.7836C50.3209 11.9763 39.1282 0.78363 25.3209 0.78363ZM19.2011 36.1456H14.1386V19.8539H19.2011V36.1456ZM16.6386 17.8539C15.0397 17.8539 14.0058 16.7211 14.0058 15.3201C14.0058 13.8904 15.0709 12.7914 16.7037 12.7914C18.3365 12.7914 19.3365 13.8904 19.3678 15.3201C19.3678 16.7211 18.3365 17.8539 16.6386 17.8539ZM37.6907 36.1456H32.6282V27.117C32.6282 25.0154 31.8938 23.5883 30.0631 23.5883C28.6647 23.5883 27.8339 24.5545 27.4668 25.4842C27.3313 25.8149 27.2975 26.2836 27.2975 26.7498V36.143H22.2324V25.0493C22.2324 23.0154 22.1673 21.3149 22.0996 19.8513H26.498L26.7298 22.1144H26.8313C27.498 21.0519 29.1308 19.4841 31.8626 19.4841C35.1933 19.4841 37.6907 21.7159 37.6907 26.5128V36.1456V36.1456Z" fill="white"/>
</g>
<defs>
<clipPath id="clip0_13_101">
<rect width="50" height="50" fill="white" transform="translate(0.320923 0.78363)"/>
</clipPath>
</defs>
</svg>
