<svg width="70" height="70" viewBox="0 0 70 70" fill="none" xmlns="http://www.w3.org/2000/svg">
<path d="M13 28.1393V46.3333C13 48.2783 13.7726 50.1435 15.1479 51.5188C16.5232 52.894 18.3884 53.6667 20.3333 53.6667H49.6667C51.6116 53.6667 53.4768 52.894 54.8521 51.5188C56.2274 50.1435 57 48.2783 57 46.3333V24.3333C57 22.3884 56.2274 20.5231 54.8521 19.1479C53.4768 17.7726 51.6116 17 49.6667 17H20.3333C18.3884 17 16.5232 17.7726 15.1479 19.1479C13.7726 20.5231 13 22.3884 13 24.3333V28.1393ZM20.3333 20.6667H49.6667C50.6391 20.6667 51.5718 21.053 52.2594 21.7406C52.947 22.4282 53.3333 23.3609 53.3333 24.3333V27.0467L35 36.9173L16.6667 27.0467V24.3333C16.6667 23.3609 17.053 22.4282 17.7406 21.7406C18.4282 21.053 19.3609 20.6667 20.3333 20.6667V20.6667ZM16.6667 31.212L34.131 40.6133C34.3981 40.7571 34.6967 40.8324 35 40.8324C35.3033 40.8324 35.6019 40.7571 35.869 40.6133L53.3333 31.212V46.3333C53.3333 47.3058 52.947 48.2384 52.2594 48.9261C51.5718 49.6137 50.6391 50 49.6667 50H20.3333C19.3609 50 18.4282 49.6137 17.7406 48.9261C17.053 48.2384 16.6667 47.3058 16.6667 46.3333V31.212Z" fill="#0099FF"/>
<circle cx="35" cy="35" r="33" stroke="#0099FF" stroke-width="4"/>
</svg>
