<svg width="70" height="70" viewBox="0 0 70 70" fill="none" xmlns="http://www.w3.org/2000/svg">
<path d="M28.4 39.95C27.63 39.95 26.9795 39.6838 26.4486 39.1514C25.9162 38.6205 25.65 37.97 25.65 37.2C25.65 36.43 25.9162 35.7795 26.4486 35.2486C26.9795 34.7162 27.63 34.45 28.4 34.45C29.17 34.45 29.8205 34.7162 30.3514 35.2486C30.8838 35.7795 31.15 36.43 31.15 37.2C31.15 37.97 30.8838 38.6205 30.3514 39.1514C29.8205 39.6838 29.17 39.95 28.4 39.95ZM41.6 39.95C40.83 39.95 40.1795 39.6838 39.6486 39.1514C39.1162 38.6205 38.85 37.97 38.85 37.2C38.85 36.43 39.1162 35.7795 39.6486 35.2486C40.1795 34.7162 40.83 34.45 41.6 34.45C42.37 34.45 43.0205 34.7162 43.5514 35.2486C44.0838 35.7795 44.35 36.43 44.35 37.2C44.35 37.97 44.0838 38.6205 43.5514 39.1514C43.0205 39.6838 42.37 39.95 41.6 39.95ZM35 52.6C39.9133 52.6 44.075 50.895 47.485 47.485C50.895 44.075 52.6 39.9133 52.6 35C52.6 34.12 52.545 33.2671 52.435 32.4414C52.325 31.6171 52.1233 30.82 51.83 30.05C51.06 30.2333 50.29 30.3712 49.52 30.4636C48.75 30.5545 47.9433 30.6 47.1 30.6C43.7633 30.6 40.61 29.885 37.64 28.455C34.67 27.025 32.14 25.0267 30.05 22.46C28.8767 25.32 27.1995 27.8045 25.0186 29.9136C22.8362 32.0212 20.2967 33.6067 17.4 34.67V35C17.4 39.9133 19.105 44.075 22.515 47.485C25.925 50.895 30.0867 52.6 35 52.6ZM35 57C31.9567 57 29.0967 56.4221 26.42 55.2664C23.7433 54.1121 21.415 52.545 19.435 50.565C17.455 48.585 15.8879 46.2567 14.7336 43.58C13.5779 40.9033 13 38.0433 13 35C13 31.9567 13.5779 29.0967 14.7336 26.42C15.8879 23.7433 17.455 21.415 19.435 19.435C21.415 17.455 23.7433 15.8871 26.42 14.7314C29.0967 13.5771 31.9567 13 35 13C38.0433 13 40.9033 13.5771 43.58 14.7314C46.2567 15.8871 48.585 17.455 50.565 19.435C52.545 21.415 54.1121 23.7433 55.2664 26.42C56.4221 29.0967 57 31.9567 57 35C57 38.0433 56.4221 40.9033 55.2664 43.58C54.1121 46.2567 52.545 48.585 50.565 50.565C48.585 52.545 46.2567 54.1121 43.58 55.2664C40.9033 56.4221 38.0433 57 35 57Z" fill="#0099FF"/>
<circle cx="35" cy="35" r="33" stroke="#0099FF" stroke-width="4"/>
</svg>
