<svg width="70" height="70" viewBox="0 0 70 70" fill="none" xmlns="http://www.w3.org/2000/svg">
<path d="M50.3862 54.9853H50.1248C19.9052 53.2475 15.6144 27.7492 15.0146 19.9674C14.9663 19.3624 15.0379 18.7537 15.2251 18.1764C15.4124 17.599 15.7118 17.0643 16.1061 16.6029C16.5004 16.1414 16.9819 15.7623 17.523 15.4873C18.064 15.2122 18.6541 15.0466 19.2592 15H27.733C28.3491 14.9994 28.9511 15.1838 29.4611 15.5293C29.9711 15.8748 30.3656 16.3655 30.5935 16.9377L32.9311 22.6895C33.1562 23.2486 33.2121 23.8615 33.0918 24.452C32.9715 25.0426 32.6803 25.5848 32.2545 26.0113L28.9787 29.3178C29.4904 32.2256 30.8829 34.906 32.9679 36.9965C35.0528 39.0869 37.7296 40.4865 40.636 41.0058L43.9732 37.6993C44.4061 37.2782 44.9534 36.9938 45.5469 36.8817C46.1404 36.7696 46.7537 36.8346 47.3104 37.0688L53.1083 39.391C53.672 39.6261 54.1529 40.0237 54.4898 40.5332C54.8266 41.0426 55.0042 41.6408 54.9999 42.2515V50.3716C54.9999 51.5952 54.5138 52.7687 53.6486 53.634C52.7834 54.4992 51.6099 54.9853 50.3862 54.9853ZM19.6283 18.0758C19.2205 18.0758 18.8293 18.2378 18.5409 18.5262C18.2525 18.8146 18.0904 19.2058 18.0904 19.6137V19.7367C18.7979 28.8411 23.3347 50.3716 50.294 51.9095C50.496 51.922 50.6985 51.8945 50.8899 51.8285C51.0813 51.7625 51.2578 51.6595 51.4092 51.5252C51.5607 51.3908 51.6841 51.228 51.7725 51.0458C51.8608 50.8637 51.9124 50.6659 51.9241 50.4639V42.2515L46.1263 39.9293L41.7125 44.3123L40.9743 44.22C27.5946 42.5437 25.7799 29.164 25.7799 29.0256L25.6876 28.2874L30.0553 23.8737L27.7484 18.0758H19.6283Z" fill="#0099FF"/>
<circle cx="35" cy="35" r="33" stroke="#0099FF" stroke-width="4"/>
</svg>
