<svg width="70" height="70" viewBox="0 0 70 70" fill="none" xmlns="http://www.w3.org/2000/svg">
<path d="M34.5999 13C29.9625 12.9998 25.5123 14.8299 22.2167 18.0925C18.9211 21.3552 17.0464 25.7867 17 30.4239C17 42.4799 32.5099 55.8999 33.1699 56.4719C33.5684 56.8127 34.0756 57 34.5999 57C35.1243 57 35.6314 56.8127 36.0299 56.4719C36.7999 55.8999 52.1999 42.4799 52.1999 30.4239C52.1535 25.7867 50.2788 21.3552 46.9832 18.0925C43.6876 14.8299 39.2374 12.9998 34.5999 13ZM34.5999 51.8299C30.926 48.3319 21.4 38.6299 21.4 30.4239C21.4 26.9231 22.7907 23.5656 25.2662 21.0902C27.7416 18.6147 31.0991 17.224 34.5999 17.224C38.1008 17.224 41.4582 18.6147 43.9337 21.0902C46.4092 23.5656 47.7999 26.9231 47.7999 30.4239C47.7999 38.5639 38.2739 48.3319 34.5999 51.8299Z" fill="#0099FF"/>
<path d="M34.6004 21.8C33.0775 21.8 31.5887 22.2516 30.3225 23.0977C29.0562 23.9438 28.0693 25.1464 27.4865 26.5534C26.9037 27.9604 26.7512 29.5086 27.0483 31.0022C27.3455 32.4959 28.0788 33.8679 29.1557 34.9447C30.2325 36.0216 31.6045 36.7549 33.0982 37.052C34.5918 37.3492 36.14 37.1967 37.547 36.6139C38.954 36.0311 40.1566 35.0442 41.0027 33.7779C41.8487 32.5116 42.3003 31.0229 42.3003 29.5C42.3003 27.4579 41.4891 25.4993 40.0451 24.0553C38.601 22.6113 36.6425 21.8 34.6004 21.8V21.8ZM34.6004 32.8C33.9477 32.8 33.3097 32.6065 32.767 32.2439C32.2243 31.8813 31.8013 31.3659 31.5516 30.7629C31.3018 30.1599 31.2365 29.4964 31.3638 28.8562C31.4911 28.2161 31.8054 27.6281 32.2669 27.1666C32.7284 26.7051 33.3164 26.3908 33.9566 26.2634C34.5967 26.1361 35.2602 26.2015 35.8632 26.4512C36.4662 26.701 36.9816 27.124 37.3442 27.6666C37.7068 28.2093 37.9004 28.8473 37.9004 29.5C37.9004 30.3752 37.5527 31.2146 36.9338 31.8335C36.3149 32.4523 35.4756 32.8 34.6004 32.8Z" fill="#0099FF"/>
<circle cx="35" cy="35" r="33" stroke="#0099FF" stroke-width="4"/>
</svg>
