<svg width="51" height="51" viewBox="0 0 51 51" fill="none" xmlns="http://www.w3.org/2000/svg">
<g clip-path="url(#clip0_13_99)">
<path d="M25.3209 0.78363C11.5151 0.78363 0.320923 11.9778 0.320923 25.7836C0.320923 39.5894 11.5151 50.7836 25.3209 50.7836C39.1267 50.7836 50.3209 39.5894 50.3209 25.7836C50.3209 11.9778 39.1267 0.78363 25.3209 0.78363ZM37.3354 19.6285C37.3522 19.8908 37.3522 20.1642 37.3522 20.4321C37.3522 28.624 31.1133 38.0604 19.7127 38.0604C16.197 38.0604 12.9381 37.0392 10.1926 35.2814C10.6948 35.3372 11.1747 35.3595 11.6881 35.3595C14.5899 35.3595 17.2573 34.3774 19.3834 32.7144C16.6602 32.6586 14.3723 30.8729 13.591 28.4176C14.5453 28.5571 15.4046 28.5571 16.3868 28.306C14.9846 28.0211 13.7242 27.2595 12.8199 26.1507C11.9156 25.0419 11.423 23.6542 11.4258 22.2234V22.1452C12.2461 22.6084 13.2115 22.893 14.2216 22.9321C13.3725 22.3662 12.6762 21.5995 12.1943 20.7001C11.7125 19.8006 11.46 18.7962 11.4593 17.7758C11.4593 16.6207 11.7607 15.566 12.302 14.6508C13.8583 16.5668 15.8004 18.1338 18.0021 19.25C20.2037 20.3662 22.6156 21.0066 25.081 21.1296C24.2049 16.9164 27.3522 13.5068 31.1357 13.5068C32.9214 13.5068 34.5285 14.2546 35.6613 15.46C37.062 15.1977 38.4013 14.6731 39.5955 13.97C39.1323 15.4042 38.1613 16.6151 36.8723 17.3796C38.1223 17.2457 39.3276 16.8997 40.4437 16.4142C39.6011 17.6531 38.5464 18.7524 37.3354 19.6285V19.6285Z" fill="white"/>
</g>
<defs>
<clipPath id="clip0_13_99">
<rect width="50" height="50" fill="white" transform="translate(0.320923 0.78363)"/>
</clipPath>
</defs>
</svg>
