<svg width="37" height="41" viewBox="0 0 37 41" fill="none" xmlns="http://www.w3.org/2000/svg">
<path d="M1.2663 15.4477L4.08591 20.7491L7.33825 25.9577L28.6162 37.8775C34.5909 34.5701 34.069 23.986 34.5676 19.2671C34.7677 17.3728 36.552 13.6458 36.8998 12.066C37.0902 11.201 35.6669 10.9235 35.0269 10.9235C33.9716 10.8481 33.2963 11.3339 33.0905 11.5862L28.4103 19.2671L18.0495 1.60293C16.1321 0.0931676 14.6463 1.12484 14.143 1.82939L14.2385 4.13514L13.2471 4.27183C11.8631 0.551583 9.16066 0.769595 8.16303 2.02879L9.51852 6.14376L8.00706 6.35246C6.24264 4.28448 4.09245 5.46076 3.93906 6.19581L7.88946 12.7749C7.96778 13.8714 7.66918 15.6121 5.84818 13.8029C4.02718 11.9936 2.31876 13.049 1.69218 13.8029L1.2663 15.4477Z" fill="#CC9200"/>
<path d="M12.3769 35.7561C14.7554 39.7759 18.9994 40.8148 20.7837 40.8253C23.0574 40.8253 26.3358 39.4908 27.6876 38.5419C31.3796 36.1346 32.7301 31.2181 32.9438 29.0608L33.1537 22.7805C33.1057 19.1473 34.6625 15.1613 35.4469 13.6224C35.7107 13.0828 35.6668 12.5482 35.6118 12.3484C35.396 11.569 33.779 11.2765 33.0188 11.6139C30.8844 12.5612 29.8769 14.3294 29.8561 15.0913C29.7842 17.7293 28.6311 19.057 28.1743 19.2368C24.7917 20.568 24.5958 26.9699 24.9207 30.0045C22.3888 25.4481 24.7889 20.5677 26.3469 18.637C26.3749 18.6023 26.3775 18.5553 26.3548 18.5169L16.617 2.08536C15.8967 1.13568 14.4784 1.55205 13.9931 1.86137C13.1995 2.41175 13.0892 3.86103 13.3851 4.46929L20.6808 16.9969C20.8829 17.3288 21.6941 17.5142 22.0248 17.5729C20.5657 17.6497 19.5289 18.5755 19.1929 19.0288C19.3593 18.7728 19.4986 17.8211 19.3209 17.4769L10.4732 2.53335C9.96397 1.82068 8.32505 1.6468 7.67329 2.37335C6.89251 3.24372 6.96308 4.26568 7.1453 4.67728C9.74788 9.31179 15.0668 18.7055 15.385 19.2368C15.7079 19.7758 16.585 20.1594 16.969 20.2928C16.0602 20.5104 14.8933 21.6034 14.4235 22.1227C14.5746 21.7449 14.6238 20.5903 14.4235 20.1706L6.61501 6.82057C5.48996 5.23625 3.586 6.15193 3.24602 6.82057C2.88997 7.5208 2.98451 8.60896 3.24602 9.11904L10.8971 22.595C11.3253 23.3758 12.0621 23.4871 12.3769 23.4451C11.5709 23.7222 10.5298 25.2818 10.1099 26.027C10.4122 24.7675 10.2359 24.0329 10.1099 23.8229L4.8518 14.692C3.65923 12.9444 1.84251 13.5502 1.45133 13.9993C0.771231 14.7802 0.890605 16.0564 1.10499 16.5497L12.3769 35.7561Z" fill="#FDCA47"/>
<path d="M2.32881 24.9579C2.68161 29.5913 6.09199 34.2718 9.78462 36.0828C1.80668 34.9727 1.48994 28.2037 2.32881 24.9579Z" fill="#6E8189"/>
<path d="M31.0674 11.2108C31.2492 7.58266 29.0642 3.61755 26.3784 1.8501C32.4566 3.49514 32.037 8.77599 31.0674 11.2108Z" fill="#6E8189"/>
<path d="M27.3615 14.4609C27.4976 9.81609 24.5981 4.8031 21.1163 2.61398C28.9333 4.55652 28.5368 11.3213 27.3615 14.4609Z" fill="#6E8189"/>
<path d="M1.19543 32.8375C2.82136 36.1216 6.95502 38.4579 10.4902 38.5995C3.66179 40.3486 1.44852 35.4869 1.19543 32.8375Z" fill="#6E8189"/>
</svg>
