<svg width="868" height="168" viewBox="0 0 868 168" fill="none" xmlns="http://www.w3.org/2000/svg">
<path d="M52.906 152.039L30.6199 167.425L27.6443 154.69L1.41666 158.099L14.5102 134.066L4.39221 126.898L36.0575 106.81L1.92829 89.2279L14.2627 81.4212L0 59.1359H26.0633L22.8624 46.0106L55.6359 62.4228L55.0818 19.699L70.1055 29.4339L86.8708 0L103.33 29.1474L118.29 19.4716V61.5391L151.537 45.127L148.624 58.1284L177.068 57.9029L160.691 80.58L172.901 88.6937L138.608 106.81L170.541 126.487L160.342 134.499L173.886 158.284L146.613 155.366L144.027 168L120.385 152.061V89.2889H92.5357V112.992L87.8258 108.278L80.796 115.314V75.3207H52.8857L52.906 152.039Z" fill="black"/>
<path d="M105.971 149.739H113.25V96.5263H99.8147V119.531L105.978 125.7L105.971 149.739Z" fill="black"/>
<path d="M90.8531 149.739H98.6512V128.007L88.0216 117.368L77.3699 128.029V149.739H85.2289V141.328H90.8937L90.8531 149.739Z" fill="black"/>
<path d="M60.1926 82.5303V149.739H70.2072V123.777L73.6149 120.366V82.5303H60.1926Z" fill="black"/>
<path d="M253.5 108.55C253.8 104.6 249.95 102.2 246 101.45L243.35 100.95L245.75 99.85C249.95 97.85 252.9 94.75 252.85 90.2C252.8 80.9 237.75 82.75 227.75 83.7L217.75 84.7L216.35 91.2L223.85 91.45L222.85 112.25L218.65 111.7C218.9 114.05 219.05 115.4 219.15 117.65C219.2 119.4 219.2 120.5 219.15 122.3L226.75 122C238.35 121.65 252.3 122.65 253.5 108.55ZM245 95.25C244 98.95 237.3 100.75 231.8 100.35L228.5 100.05L229.8 91.6L232.85 91.8C237.7 92.25 245.85 92.15 245 95.25ZM248.25 108.55C249 113.7 237.7 113.5 230.65 113L227.4 112.75L228.15 104.25L232.05 104.65C238.5 105.25 247.7 104.55 248.25 108.55ZM274.947 83.4L257.247 84.5L256.097 91.8H262.847V112.85L258.747 112.8V122.3C260.747 122 261.947 121.85 263.947 121.75C266.997 121.6 268.797 121.55 271.847 121.65C271.897 120.3 271.997 119.45 272.147 118.2C272.397 116.4 272.647 115.3 272.997 113.5L267.397 113.4L269.097 91.9H273.947C273.947 90.2 274.047 89.15 274.247 87.5C274.397 85.85 274.597 84.95 274.947 83.4ZM309.725 105.5H305.675L303.725 113.4L289.675 112.9L291.175 91.95L297.375 92.5C297.425 90.65 297.475 89.55 297.625 87.7C297.725 85.95 297.825 84.95 297.975 83.2L279.375 84.05L277.875 91.7H284.825L284.225 112.7L280.125 112.45L280.375 122.35L308.725 121C308.825 118 308.925 116.25 309.125 113.3C309.275 110.3 309.425 108.5 309.725 105.5ZM350.094 99.05C350.794 86.15 340.144 81.1 325.594 83L313.744 84.65L312.544 91.95L319.644 91.7L319.794 112.7L315.994 112.3V122.3L320.444 122.45C335.044 122.9 349.094 117.7 350.094 99.05ZM345.194 102.45C345.194 112.55 335.094 113.95 326.894 113.2L324.144 112.9L325.744 91.6L328.794 91.7C336.394 92 345.194 94.5 345.194 102.45ZM408.193 111.15L401.993 112.5C394.593 114.05 375.643 114.45 376.293 105.15C376.793 97.65 383.643 92.65 391.093 92.75C394.993 92.8 397.293 93.5 400.743 95.25L402.243 96L402.093 101.3L406.093 100.65C406.243 97.25 406.393 95.25 406.743 91.8C406.993 88.5 407.193 86.5 407.593 83.2L402.693 83.45L402.393 87.4L400.893 86.4C397.293 84 394.543 82.75 390.293 83C379.143 83.75 371.393 94.3 371.093 105.9C370.843 116.85 379.143 122.45 388.193 122.85C393.693 123.05 396.893 122 402.043 120L406.793 118.2L408.193 111.15ZM447.737 99.1C447.387 88.05 438.787 82.15 428.387 82.6C416.037 83.15 410.987 91.85 410.787 105.25C410.737 114.9 416.787 122.5 428.387 122.9C440.737 123.3 448.087 114.35 447.737 99.1ZM442.937 102.25C442.837 112.7 436.587 113 429.987 113.45C422.437 113.85 415.287 109.55 415.087 100.7C414.937 94.35 421.937 92.9 429.587 92.85C436.237 92.75 443.037 93.75 442.937 102.25ZM494.738 83.85C491.338 84.05 489.338 84.1 485.938 84.15C482.888 84.2 481.138 84.2 478.088 84.15L477.388 91.75L483.188 91.9L483.488 115.15L466.038 83.75L451.788 84.3L450.388 91.65L457.488 92.1L457.638 113.4L453.638 112.9L453.738 122.1L467.388 121.65L467.688 114.05L462.138 113.8L463.588 93.9L481.638 121.7L487.888 121.55L489.138 91.8L493.838 92.25C493.938 90.55 494.038 89.55 494.238 87.9C494.388 86.35 494.488 85.35 494.738 83.85ZM533.361 83.95L528.961 84.05L528.261 87.2L526.061 86.1C522.011 84 519.311 83 514.711 82.8C506.411 82.3 499.511 88.35 498.911 97.5C498.461 104.7 506.811 106.75 513.561 106.75H522.111C524.261 106.75 527.261 106.8 527.261 108.7C527.261 112.35 519.511 113.15 514.111 113.35C509.461 113.45 506.711 113.05 502.361 111.7L499.311 110.7L497.511 117.65L499.911 118.75C505.561 121.1 509.111 123 515.261 122.75C523.861 122.35 532.561 118.05 532.661 109.5C532.811 102.7 525.161 101.9 519.011 101.2L511.661 100.4C508.411 100 504.261 100.1 503.861 96.8C503.511 93.65 510.661 92 515.511 91.9C519.411 91.8 521.911 92.45 525.511 94.05L527.111 94.7L526.711 98.7L530.961 98.6C531.211 95.35 531.411 93.45 532.011 90.25C532.461 87.8 532.761 86.35 533.361 83.95ZM571.478 83.45L536.778 84.75L536.128 99.25L539.678 99.05L540.928 91.8L549.528 92.1V112.9L544.328 112.65L544.728 122.25L559.228 121.35C559.378 120 559.478 119.2 559.678 117.9C559.878 116.2 560.028 115.15 560.328 113.45L554.428 113.25C554.828 108.15 555.078 105.1 555.678 99.95C556.078 96.95 556.278 95.15 556.728 92.1L566.078 92.3L566.328 98.95H569.928C569.978 96.85 570.078 95.6 570.228 93.45C570.528 89.6 570.828 87.3 571.478 83.45ZM612.713 113.75L610.363 113.9C608.313 114 606.863 114.35 605.013 113.4C602.413 112 602.513 108.75 599.913 106.75L598.663 105.8L600.163 105.1C606.713 102.15 611.963 97.8 611.913 90.85C611.863 80.75 596.063 82.4 585.463 83.45L575.713 84.45L574.213 91.2L580.013 91.35L579.013 113.2L574.963 112.85V122.55L589.363 121.2C589.463 119.85 589.563 118.95 589.813 117.6C590.063 116.4 590.263 115.6 590.663 114.35L584.013 113.6L584.913 106L586.863 106.3C589.563 106.65 591.763 106.4 593.713 107.6C596.513 109.3 596.963 111.8 597.913 114.9L600.413 122.95L611.613 121.75C611.713 120.2 611.813 119.25 612.013 117.65C612.213 116.15 612.413 115.25 612.713 113.75ZM604.313 96.45C604.463 101.45 594.863 102.05 588.313 102.05H585.263L586.513 91.7L591.963 92.05C597.063 92.35 604.263 93.4 604.313 96.45ZM655.819 83.45L639.319 83.85L637.819 91.3L645.019 91.6V93.6C645.019 102.25 646.719 113.5 634.619 113.3C631.169 113.25 627.969 113.05 626.319 110.1C625.619 108.75 625.819 106.4 626.069 104.1L627.319 91.95L632.069 92C632.119 90.45 632.169 89.45 632.319 87.85C632.469 86.2 632.669 85.2 632.869 83.5L616.569 84L615.819 91.8L620.869 91.6L620.969 103.15C621.069 112.3 619.019 122.85 634.069 122.85C646.869 122.9 648.319 115.25 649.169 106.8L650.569 91.95L655.119 92.1C655.119 90.35 655.219 89.35 655.369 87.6C655.469 85.95 655.619 85.05 655.819 83.45ZM695.547 111.15L689.347 112.5C681.947 114.05 662.997 114.45 663.647 105.15C664.147 97.65 670.997 92.65 678.447 92.75C682.347 92.8 684.647 93.5 688.097 95.25L689.597 96L689.447 101.3L693.447 100.65C693.597 97.25 693.747 95.25 694.097 91.8C694.347 88.5 694.547 86.5 694.947 83.2L690.047 83.45L689.747 87.4L688.247 86.4C684.647 84 681.897 82.75 677.647 83C666.497 83.75 658.747 94.3 658.447 105.9C658.197 116.85 666.497 122.45 675.547 122.85C681.047 123.05 684.247 122 689.397 120L694.147 118.2L695.547 111.15ZM733.441 83.45L698.741 84.75L698.091 99.25L701.641 99.05L702.891 91.8L711.491 92.1V112.9L706.291 112.65L706.691 122.25L721.191 121.35C721.341 120 721.441 119.2 721.641 117.9C721.841 116.2 721.991 115.15 722.291 113.45L716.391 113.25C716.791 108.15 717.041 105.1 717.641 99.95C718.041 96.95 718.241 95.15 718.691 92.1L728.041 92.3L728.291 98.95H731.891C731.941 96.85 732.041 95.6 732.191 93.45C732.491 89.6 732.791 87.3 733.441 83.45ZM790.343 83.95L785.943 84.05L785.243 87.2L783.043 86.1C778.993 84 776.293 83 771.693 82.8C763.393 82.3 756.493 88.35 755.893 97.5C755.443 104.7 763.793 106.75 770.543 106.75H779.093C781.243 106.75 784.243 106.8 784.243 108.7C784.243 112.35 776.493 113.15 771.093 113.35C766.443 113.45 763.693 113.05 759.343 111.7L756.293 110.7L754.493 117.65L756.893 118.75C762.543 121.1 766.093 123 772.243 122.75C780.843 122.35 789.543 118.05 789.643 109.5C789.793 102.7 782.143 101.9 775.993 101.2L768.643 100.4C765.393 100 761.243 100.1 760.843 96.8C760.493 93.65 767.643 92 772.493 91.9C776.393 91.8 778.893 92.45 782.493 94.05L784.093 94.7L783.693 98.7L787.943 98.6C788.193 95.35 788.393 93.45 788.993 90.25C789.443 87.8 789.743 86.35 790.343 83.95ZM831.56 113.75L829.21 113.9C827.16 114 825.71 114.35 823.86 113.4C821.26 112 821.36 108.75 818.76 106.75L817.51 105.8L819.01 105.1C825.56 102.15 830.81 97.8 830.76 90.85C830.71 80.75 814.91 82.4 804.31 83.45L794.56 84.45L793.06 91.2L798.86 91.35L797.86 113.2L793.81 112.85V122.55L808.21 121.2C808.31 119.85 808.41 118.95 808.66 117.6C808.91 116.4 809.11 115.6 809.51 114.35L802.86 113.6L803.76 106L805.71 106.3C808.41 106.65 810.61 106.4 812.56 107.6C815.36 109.3 815.81 111.8 816.76 114.9L819.26 122.95L830.46 121.75C830.56 120.2 830.66 119.25 830.86 117.65C831.06 116.15 831.26 115.25 831.56 113.75ZM823.16 96.45C823.31 101.45 813.71 102.05 807.16 102.05H804.11L805.36 91.7L810.81 92.05C815.91 92.35 823.11 93.4 823.16 96.45ZM866.316 105.5H862.266L860.316 113.4L846.266 112.9L847.766 91.95L853.966 92.5C854.016 90.65 854.066 89.55 854.216 87.7C854.316 85.95 854.416 84.95 854.566 83.2L835.966 84.05L834.466 91.7H841.416L840.816 112.7L836.716 112.45L836.966 122.35L865.316 121C865.416 118 865.516 116.25 865.716 113.3C865.866 110.3 866.016 108.5 866.316 105.5Z" fill="black"/>
</svg>
