<svg width="617" height="71" viewBox="0 0 617 71" fill="none" xmlns="http://www.w3.org/2000/svg">
<path d="M52.6562 36.0156L48.625 61C46.7812 63.5625 44.4844 65.5781 41.7344 67.0469C39.0156 68.4844 36.0938 69.5 32.9688 70.0938C29.8438 70.6875 26.7969 70.9688 23.8281 70.9375C19.2969 70.875 15.4688 69.9062 12.3438 68.0312C9.25 66.1562 6.79688 63.6719 4.98438 60.5781C3.17188 57.4844 1.95312 54.0312 1.32812 50.2188C0.734375 46.4062 0.703125 42.5 1.23438 38.5L1.98438 33.2031C2.60938 28.9219 3.70312 24.8281 5.26562 20.9219C6.85938 16.9844 8.95312 13.5 11.5469 10.4688C14.1719 7.40625 17.3125 5.01563 20.9688 3.29688C24.625 1.54688 28.8438 0.71875 33.625 0.8125C37.9688 0.90625 41.6875 1.8125 44.7812 3.53125C47.9062 5.25 50.3438 7.65625 52.0938 10.75C53.875 13.8438 54.9219 17.5156 55.2344 21.7656H46.5156C46.2969 19.0781 45.6719 16.7344 44.6406 14.7344C43.6406 12.7344 42.1875 11.1719 40.2812 10.0469C38.4062 8.92188 36.0625 8.3125 33.25 8.21875C29.6875 8.09375 26.5938 8.75 23.9688 10.1875C21.375 11.5938 19.1875 13.5156 17.4062 15.9531C15.6562 18.3594 14.25 21.0625 13.1875 24.0625C12.125 27.0312 11.3594 30.0469 10.8906 33.1094L10.0938 38.5469C9.75 41.2031 9.65625 43.9844 9.8125 46.8906C10 49.7656 10.5781 52.4531 11.5469 54.9531C12.5469 57.4531 14.0625 59.5 16.0938 61.0938C18.125 62.6562 20.8125 63.4688 24.1562 63.5312C26.0625 63.5625 27.9375 63.4375 29.7812 63.1562C31.6562 62.875 33.4375 62.375 35.125 61.6562C36.8125 60.9375 38.3906 59.9219 39.8594 58.6094L42.625 43.3281H27.25L28.5625 36.0156H52.6562ZM73.0938 1.75L94.4688 1.79688C98.625 1.89062 102.297 2.6875 105.484 4.1875C108.672 5.6875 111.094 7.90625 112.75 10.8438C114.438 13.75 115.094 17.4219 114.719 21.8594C114.406 25.3906 113.406 28.4375 111.719 31C110.062 33.5312 107.922 35.6562 105.297 37.375C102.672 39.0625 99.7656 40.4062 96.5781 41.4062L93.9531 42.3438H72.7656L73.9844 34.9844L89.0312 35.0312C91.7812 35.0312 94.3594 34.5312 96.7656 33.5312C99.2031 32.5312 101.234 31.0625 102.859 29.125C104.516 27.1562 105.531 24.7344 105.906 21.8594C106.25 19.1094 105.984 16.8125 105.109 14.9688C104.234 13.125 102.859 11.7188 100.984 10.75C99.1406 9.78125 96.9062 9.26562 94.2812 9.20312L80.6406 9.15625L70.0938 70H61.2344L73.0938 1.75ZM100.188 70L89.4531 39.0625L98.1719 39.0156L109.609 69.3906L109.562 70H100.188ZM162.062 62.6406L160.75 70H125.641L126.906 62.6406H162.062ZM139.328 1.75L127.469 70H118.609L130.469 1.75H139.328ZM162.859 31.0938L161.594 38.4531H131.078L132.391 31.0938H162.859ZM172.141 1.75L170.828 9.15625H136.188L137.5 1.75H172.141ZM215.031 62.6406L213.719 70H178.609L179.875 62.6406H215.031ZM192.297 1.75L180.438 70H171.578L183.438 1.75H192.297ZM215.828 31.0938L214.562 38.4531H184.047L185.359 31.0938H215.828ZM225.109 1.75L223.797 9.15625H189.156L190.469 1.75H225.109ZM243.062 70H228.672L230.031 62.6406L243.297 62.6875C248.266 62.6875 252.562 61.6094 256.188 59.4531C259.844 57.2656 262.781 54.3125 265 50.5938C267.219 46.8438 268.688 42.625 269.406 37.9375L270.016 33.7188C270.391 30.7188 270.438 27.7812 270.156 24.9062C269.906 22.0312 269.203 19.4375 268.047 17.125C266.891 14.7812 265.203 12.9062 262.984 11.5C260.766 10.0625 257.906 9.29688 254.406 9.20312L238.938 9.15625L240.25 1.75L254.594 1.79688C259.156 1.89062 263.062 2.82812 266.312 4.60938C269.594 6.35937 272.234 8.71875 274.234 11.6875C276.266 14.6562 277.641 18.0469 278.359 21.8594C279.109 25.6719 279.234 29.6719 278.734 33.8594L278.172 37.9375C277.516 42.5625 276.219 46.8438 274.281 50.7812C272.344 54.6875 269.859 58.0781 266.828 60.9531C263.797 63.8281 260.281 66.0625 256.281 67.6562C252.281 69.2188 247.875 70 243.062 70ZM245.266 1.75L233.406 70H224.547L236.406 1.75H245.266ZM298.328 1.75L309.531 35.9688L332.688 1.75H343.234L312.625 44.9688L308.266 70H299.453L304 43.9844L288.719 1.75H298.328ZM418.094 36.0156L414.062 61C412.219 63.5625 409.922 65.5781 407.172 67.0469C404.453 68.4844 401.531 69.5 398.406 70.0938C395.281 70.6875 392.234 70.9688 389.266 70.9375C384.734 70.875 380.906 69.9062 377.781 68.0312C374.688 66.1562 372.234 63.6719 370.422 60.5781C368.609 57.4844 367.391 54.0312 366.766 50.2188C366.172 46.4062 366.141 42.5 366.672 38.5L367.422 33.2031C368.047 28.9219 369.141 24.8281 370.703 20.9219C372.297 16.9844 374.391 13.5 376.984 10.4688C379.609 7.40625 382.75 5.01563 386.406 3.29688C390.062 1.54688 394.281 0.71875 399.062 0.8125C403.406 0.90625 407.125 1.8125 410.219 3.53125C413.344 5.25 415.781 7.65625 417.531 10.75C419.312 13.8438 420.359 17.5156 420.672 21.7656H411.953C411.734 19.0781 411.109 16.7344 410.078 14.7344C409.078 12.7344 407.625 11.1719 405.719 10.0469C403.844 8.92188 401.5 8.3125 398.688 8.21875C395.125 8.09375 392.031 8.75 389.406 10.1875C386.812 11.5938 384.625 13.5156 382.844 15.9531C381.094 18.3594 379.688 21.0625 378.625 24.0625C377.562 27.0312 376.797 30.0469 376.328 33.1094L375.531 38.5469C375.188 41.2031 375.094 43.9844 375.25 46.8906C375.438 49.7656 376.016 52.4531 376.984 54.9531C377.984 57.4531 379.5 59.5 381.531 61.0938C383.562 62.6562 386.25 63.4688 389.594 63.5312C391.5 63.5625 393.375 63.4375 395.219 63.1562C397.094 62.875 398.875 62.375 400.562 61.6562C402.25 60.9375 403.828 59.9219 405.297 58.6094L408.062 43.3281H392.688L394 36.0156H418.094ZM468.203 62.6406L466.891 70H433.75L435.016 62.6406H468.203ZM447.391 1.75L435.531 70H426.672L438.531 1.75H447.391ZM498.156 1.75L486.297 70H477.484L489.344 1.75H498.156ZM520.656 70H506.266L507.625 62.6406L520.891 62.6875C525.859 62.6875 530.156 61.6094 533.781 59.4531C537.438 57.2656 540.375 54.3125 542.594 50.5938C544.812 46.8438 546.281 42.625 547 37.9375L547.609 33.7188C547.984 30.7188 548.031 27.7812 547.75 24.9062C547.5 22.0312 546.797 19.4375 545.641 17.125C544.484 14.7812 542.797 12.9062 540.578 11.5C538.359 10.0625 535.5 9.29688 532 9.20312L516.531 9.15625L517.844 1.75L532.188 1.79688C536.75 1.89062 540.656 2.82812 543.906 4.60938C547.188 6.35937 549.828 8.71875 551.828 11.6875C553.859 14.6562 555.234 18.0469 555.953 21.8594C556.703 25.6719 556.828 29.6719 556.328 33.8594L555.766 37.9375C555.109 42.5625 553.812 46.8438 551.875 50.7812C549.938 54.6875 547.453 58.0781 544.422 60.9531C541.391 63.8281 537.875 66.0625 533.875 67.6562C529.875 69.2188 525.469 70 520.656 70ZM522.859 1.75L511 70H502.141L514 1.75H522.859ZM606.719 62.6406L605.406 70H570.297L571.562 62.6406H606.719ZM583.984 1.75L572.125 70H563.266L575.125 1.75H583.984ZM607.516 31.0938L606.25 38.4531H575.734L577.047 31.0938H607.516ZM616.797 1.75L615.484 9.15625H580.844L582.156 1.75H616.797Z" fill="#314A6D"/>
</svg>
